<?xml version="1.0" encoding="utf-8"?>
<!-- Generator: Adobe Illustrator 22.0.1, SVG Export Plug-In . SVG Version: 6.00 Build 0)  -->
<svg version="1.1" id="Layer_1" xmlns="http://www.w3.org/2000/svg" xmlns:xlink="http://www.w3.org/1999/xlink" x="0px" y="0px"
	 viewBox="0 0 864 864" style="enable-background:new 0 0 864 864;" xml:space="preserve">
<g>
	<path d="M254.1,578.7c0.4,6.3,0.6,10.3,0.8,14.4c0.4,5.3-1.6,8.1-7.2,6.5c-4.4-1.2-8.7-2.8-13.6-4.5c6,12.5,18.4,16.2,29.7,23
		c-9.5,6.7-18,5-27.3,1.3c6.2,13.3,16.5,17.4,29.7,16.2c0.1,0.9,0.2,1.9,0.3,2.8c-6.5,2.4-13,4.9-19.8,7.4
		c9.8,10.2,20.5,2.7,30.7,1.3c0.4,0.8,0.8,1.7,1.2,2.5c-6,4.2-11.9,8.4-18.1,12.8c11.3,5.2,21.8,0.4,33.1-0.4
		c-3.8,3.1-7.7,6.2-11.9,9.6c11.9,5,21.7-2.1,32.5-4.2c-2.3,2.8-4.6,5.6-7.4,8.8c17.4-0.7,26.2-15.2,39.4-21.7
		c16.5-8.1,28.7-20.7,31.2-30.8C324.6,643.2,282.1,633.5,254.1,578.7z"/>
	<path d="M629.9,594.6c-4.6,1.8-8,3.5-11.6,4.4c-7.3,1.9-9.2,0.2-9-7.3c0.1-3.7,0-7.4,0-12c-27.6,53.1-69.5,63.3-123.8,43.4
		c8.3,14.8,19,23.7,31.7,30.9c5.8,3.3,11.3,7.3,16.7,11.3c7.1,5.3,14.4,10.1,24.1,10.9c-3-3.7-5.5-6.8-8-9.8c11.1,3.2,20.7,9.9,33,5
		c-4.3-3.4-8.1-6.5-11.9-9.5c11.2,0.6,21.7,5.9,32.7,0.2c-6.2-4.5-11.9-8.6-17.7-12.8c0.4-0.8,0.8-1.6,1.2-2.4
		c10.3,1.8,21.1,8.7,31.2-1.7c-17-4.6-17-4.6-19.9-9.3c19.1-1.9,27.3-6.8,27.4-16.5c-13.4,5-19.2,4.5-24.1-2.4
		C611.8,611,624,607.6,629.9,594.6z"/>
	<path d="M486.1,730.3c-3.8-1.6-99.7-2.7-108.4,0c-10.4,3.3-12.8,11-7,20.2c3.2,5,7.2,9.7,11.5,13.9c32.3,31.3,85.8,25.1,110.2-12.7
		C498.6,742.1,496.5,734.5,486.1,730.3z"/>
	<path d="M747.8,380.2c-11.2,0.2-21.9,2.7-32.6,5.2c-19.7,4.6-39.3,9.4-59.6,11.2c-14,1.2-28.2,2.7-41,9.6
		c-12.7,6.8-21.1,16.7-24.5,32.6c24-15.3,49.8-19.9,75.9-23.3c18.2-2.4,36.3-5.7,53.7-11.6c5.7-1.9,6.7-0.5,7.6,4.2
		c3.7,18.8,3.8,37.5,0.1,56.3c-3.2,16.5-9.5,31.9-18.8,46.3c4.4,0.7,5.7-2.7,7.6-4.7c11-11.7,20.2-24.8,27.3-39.3
		c12.9-26.3,17.2-53.6,8.7-82.2C751.7,382.3,751.4,380.2,747.8,380.2z"/>
	<path d="M248.4,408.8c-10.9-8.2-23.7-11.4-36.9-12.9c-22.7-2.6-45.2-6-67.4-11.9c-11.3-3-22.6-6.9-34.6-6.7c-3.1,0-5.6,0.5-6.3,4.1
		c-1.5,7.8-3.9,15.5-4.3,23.6c-1.6,32.8,10.7,60.7,29.9,86.2c3.1,4.1,6.5,8,9.9,11.9c3.2,3.6,6.5,7,9.8,10.5
		c-12.2-19.9-19.9-40.9-22.4-63.9c-1.7-15.4-0.7-30.6,2.6-45.7c0.8-3.6,1.7-4.4,5.6-3c11.7,4.4,24,6.5,36.2,9
		c18.4,3.8,37.3,4.8,55.6,9.7c13.2,3.5,25.7,8.7,39.4,16.5C262.3,423.7,257,415.2,248.4,408.8z"/>
	<path d="M751.8,93.6c-4.8-12.8-16.2-17.6-26-11.8c-9.9,5.8-13.7,19.7-9.6,32.9c3.1,10,6.1,20.3,8,30.7c4.7,26.4,0,50.2-14.3,70.9
		c-12.5,18-28.1,30.9-44.7,42.3c-0.3,0.2-0.8,0.2-1.3,0.2c0.4-4.7,1.1-9.1,1.1-13.5c0.4-27.2-7.2-51.4-19.1-73.6
		c-4.9-9.1-15.2-10.9-22.3-5.1c-7.6,6.3-9.6,18.5-5.1,28.6c3.6,8.2,7.2,16.5,9.8,25.1c3.4,11.3,5.3,23,0.9,34.8
		c-4.9,13.2-11.2,25.2-19.6,35.3c-3.7,4.5-8,8.4-12.4,13c-2.2-7.7-3.6-13.9-5.7-19.8c-5.3-15.2-13.2-28-24.2-37.6
		c-7.6-6.6-17.8-4.3-23.1,4.9c-5.2,9-3.6,21.5,3.5,28.6c1.1,1.1,2.2,2.1,3.2,3.3c13.4,15.9,16,35.1,11.1,56.7
		c-5.3,23.4-13.7,45.2-22.8,66.5c-1.2,2.9-2.3,6.1-2.5,9.3c-0.8,12.2,6.3,23.1,16.3,25.6c9.1,2.3,19.1-4.7,22-16
		c4-15.6,9.5-30.3,16.6-44c10.4-20.2,23.4-37.1,40.9-47.8c16.3-9.9,32.7-19.4,48.8-29.9c21.2-13.9,41-30.6,57-53.3
		c12.7-18.1,21.6-38.7,25.1-62.5C768.6,154.6,763,123.4,751.8,93.6z"/>
	<path d="M167,293.5c20,16,41.5,28.2,63,40.6c11.7,6.8,22.1,15.5,30.9,27.3c14.2,18.9,24.1,41,30.6,65.5
		c3.8,14.4,14.3,21.2,25.7,16.7c10.4-4,16.2-20.7,11.4-32.3c-2.2-5.2-4.5-10.4-6.6-15.7c-7.7-19.2-14.7-38.8-18.3-60
		c-3.7-21.6,2.3-38.6,15.4-52.5c2.6-2.7,4.8-6.7,6-10.7c2.4-8.3-0.4-17.8-6-22.6c-6.5-5.6-13.9-5.4-20.6,0.9
		c-8.3,7.8-15.1,17.4-19.8,29c-3.4,8.3-5.9,17.1-9,26.4c-2.1-1.7-4.4-3.4-6.4-5.4c-10.5-10.8-18.4-24.1-24.3-39.4
		c-2.2-5.9-4-11.9-3.5-18.7c1.3-16,6.3-30.3,13-43.7c4.9-9.7,2.9-22.3-4.4-28.4c-7.9-6.5-18-4.3-23.2,5.5c-3.3,6.4-6.4,13-8.9,20
		c-6.8,18.7-11.4,38.1-9.4,59c0.2,2.5,0.6,4.9,1,8.1c-2.4-1.6-4.1-2.8-5.7-4c-16.3-11.7-31.6-24.9-43.3-43.8
		C144,198.2,140,178.8,142,157.3c1.4-14.3,5.2-27.6,9.7-40.8c4.1-12.3-0.9-26.1-10.9-31.6c-9.2-5-20.6,0.1-25.1,11.6
		c-5.7,14.9-9.7,30.4-12,46.7c-5.2,36.4,0.7,69.6,18,99.5C133.8,263.8,149.7,279.7,167,293.5z"/>
	<path d="M334.9,407.5c1.2,8.3,1.5,16.5-0.3,24.8c-1.7,8.2-3.2,16.5-4.8,24.8c-4,20.7,4.3,34.2,21.3,35c8,0.4,15.9-0.8,23.5-4
		c10.5-4.4,20.8-9.4,29.4-18.6c3.8-4.1,5.2-9.1,4-15.6c-6.4,2.6-12.6,6.1-19.2,2.2c3.8-1.6,7.8-2.6,11.6-4.1
		c7.1-2.7,9.3-6.2,9.8-14.7c0.2-3.1-0.5-4.9-3.1-5.6c-4.5-1.1-9-2.5-13.5-3.8c-0.7-0.2-1.3-0.7-1.9-1c0-0.3,0.1-0.7,0.1-1
		c6.3,0,12.6,0,19.5,0c0.5-1.6,1-3.8,1.9-5.7c2.5-5.3,1.9-10.3-0.3-15.5c-11.9-26.9-28.4-48.5-48.9-65.3c-8.2-6.8-21.1-4-27.7,4.7
		c-5.8,7.7-7.7,17.1-6.6,27.2C331.2,383.5,333.1,395.5,334.9,407.5z"/>
	<path d="M459.5,426.3c5.5-1.5,11.1-1.5,17.4,0.5c-1.5,0.6-2.2,1-2.9,1.2c-4.5,1.3-9,2.6-13.5,3.8c-2.2,0.6-2.8,2.1-2.9,4.9
		c-0.2,7.8,2.9,12.3,8.5,14.6c2.3,0.9,4.6,1.7,7,2.4c2.1,0.6,4.1,1.1,7.1,1.9c-7.9,4.5-14.2,0.3-20.7-1.9
		c-1.4,8.6,1.9,14.1,6.9,18.2c16.3,13.4,33.8,21.5,53.7,19.8c12.5-1.1,20.6-13.7,18.6-29.2c-0.9-6.4-2.2-12.6-3.3-19
		c-1.8-10.2-4.5-20.4-3-31.1c1.6-11.3,3.4-22.6,4.8-34c1.2-9,1.6-18.1-1.6-26.7c-5.8-15.5-21.1-21.5-32.6-12.1
		c-19.1,15.6-34.4,35.9-46.3,60.2c-3.9,7.9-5.5,15.2-1.3,23.6C456.7,425.8,457.3,426.9,459.5,426.3z"/>
	<path d="M413.4,465.1c0.1,7.7,2.1,11.2,8.3,12.3c4.1,0.8,8.3,0.7,13.1,1c3.8-0.4,8.4-0.5,12.8-1.3c4.4-0.8,6.7-3.8,6.9-8.7
		c0.7-16.8-0.6-33.4-5.2-49.3c-1.5-5.3-4.8-8-9.2-8.3c-3.2-0.2-6.5-0.1-9.7-0.1c-7.4,0-10,2.5-12.3,11.4
		C414.4,436.1,413.2,450.5,413.4,465.1z"/>
</g>
</svg>
